<?xml version="1.0" encoding="UTF-8" standalone="no"?>
<!-- Created with Inkscape (http://www.inkscape.org/) -->

<svg
   xmlns:dc="http://purl.org/dc/elements/1.1/"
   xmlns:cc="http://creativecommons.org/ns#"
   xmlns:rdf="http://www.w3.org/1999/02/22-rdf-syntax-ns#"
   xmlns:svg="http://www.w3.org/2000/svg"
   xmlns="http://www.w3.org/2000/svg"
   xmlns:sodipodi="http://sodipodi.sourceforge.net/DTD/sodipodi-0.dtd"
   xmlns:inkscape="http://www.inkscape.org/namespaces/inkscape"
   width="250"
   height="80"
   viewBox="0 0 66.145831 21.166667"
   version="1.1"
   id="svg1726"
   inkscape:version="0.92.3 (unknown)"
   sodipodi:docname="logotipo.svg">
  <defs
     id="defs1720">
    <filter
       inkscape:collect="always"
       style="color-interpolation-filters:sRGB"
       id="filter4231"
       x="-0.0032706684"
       width="1.0065413"
       y="-0.0090156076"
       height="1.0180312">
      <feGaussianBlur
         inkscape:collect="always"
         stdDeviation="0.06967877"
         id="feGaussianBlur4233" />
    </filter>
  </defs>
  <sodipodi:namedview
     id="base"
     pagecolor="#ffffff"
     bordercolor="#666666"
     borderopacity="1.0"
     inkscape:pageopacity="0.0"
     inkscape:pageshadow="2"
     inkscape:zoom="11.2"
     inkscape:cx="60.73831"
     inkscape:cy="44.502427"
     inkscape:document-units="mm"
     inkscape:current-layer="layer1"
     showgrid="false"
     units="px"
     inkscape:window-width="1920"
     inkscape:window-height="1016"
     inkscape:window-x="0"
     inkscape:window-y="27"
     inkscape:window-maximized="1" />
  <metadata
     id="metadata1723">
    <rdf:RDF>
      <cc:Work
         rdf:about="">
        <dc:format>image/svg+xml</dc:format>
        <dc:type
           rdf:resource="http://purl.org/dc/dcmitype/StillImage" />
        <dc:title></dc:title>
      </cc:Work>
    </rdf:RDF>
  </metadata>
  <g
     inkscape:label="Capa 1"
     inkscape:groupmode="layer"
     id="layer1"
     transform="translate(0,-275.83332)">
    <g
       id="g2465"
       transform="translate(-62.147179,228.35412)">
      <rect
         ry="0"
         y="47.479202"
         x="62.147179"
         height="21.166666"
         width="66.145836"
         id="rect5385"
         style="opacity:0;fill:#eb6e1c;fill-opacity:1;stroke:none;stroke-width:0.12055856;stroke-linecap:round;stroke-linejoin:bevel;stroke-miterlimit:4;stroke-dasharray:none;stroke-dashoffset:0;stroke-opacity:1" />
      <g
         transform="matrix(0.89290718,0,0,0.89290718,60.734449,-11.276816)"
         id="g5475">
        <g
           transform="matrix(1.124194,0,0,1.124194,-6.6694631,-6.99112)"
           id="g5429"
           style="opacity:0.23999999;fill:#333333;filter:url(#filter4231)">
          <g
             id="g5399"
             transform="matrix(1.5106829,0,0,1.5106829,-11.822045,-42.85514)"
             style="fill:#333333">
            <g
               transform="matrix(0.49199083,0,0,0.49199083,17.8622,61.096648)"
               style="fill:#333333;fill-opacity:1"
               id="g5391">
              <g
                 style="fill:#333333;fill-opacity:1"
                 id="g5389">
                <path
                   inkscape:connector-curvature="0"
                   d="m 24.8,46.7 c -3.3,0 -6.6,-0.8 -9.5,-2.5 l 0.6,-1 c 5.2,3 11.7,3.2 17.1,0.4 l 0.6,1.1 c -2.8,1.3 -5.8,2 -8.8,2 z"
                   style="fill:#333333;fill-opacity:1"
                   id="path5387" />
              </g>
            </g>
            <g
               transform="matrix(0.49199083,0,0,0.49199083,17.8622,61.096648)"
               style="fill:#333333;fill-opacity:1"
               id="g5397">
              <g
                 style="fill:#333333;fill-opacity:1"
                 id="g5395">
                <polygon
                   points="34.2,43.6 32.8,47.5 31.7,47.1 32.7,44.3 29.9,43.4 30.3,42.2 "
                   style="fill:#333333;fill-opacity:1"
                   id="polygon5393" />
              </g>
            </g>
          </g>
          <path
             inkscape:connector-curvature="0"
             style="font-style:normal;font-variant:normal;font-weight:900;font-stretch:normal;font-size:16.44063759px;line-height:1.25;font-family:'Mister Earl';-inkscape-font-specification:'Mister Earl, Heavy';font-variant-ligatures:normal;font-variant-caps:normal;font-variant-numeric:normal;font-feature-settings:normal;text-align:start;letter-spacing:0px;word-spacing:0px;writing-mode:lr-tb;text-anchor:start;fill:#333333;fill-opacity:1;stroke:none;stroke-width:0.41101551"
             d="m 26.643451,80.204285 q -1.397454,0 -2.186605,-1.03576 -0.77271,-1.05221 -0.77271,-2.95932 0,-0.93712 0.230169,-1.69338 0.230169,-0.75627 0.641185,-1.28237 0.411016,-0.5261 0.937116,-0.8056 0.542541,-0.29593 1.167286,-0.29593 1.331691,0 2.07152,1.06864 0.739829,1.06865 0.739829,3.02508 0,0.92068 -0.213729,1.66051 -0.197287,0.73982 -0.575422,1.26593 -0.378135,0.50965 -0.904235,0.78915 -0.50966,0.26305 -1.134404,0.26305 z"
             id="path5401" />
          <path
             style="font-style:normal;font-variant:normal;font-weight:900;font-stretch:normal;font-size:16.44063759px;line-height:1.25;font-family:'Mister Earl';-inkscape-font-specification:'Mister Earl, Heavy';font-variant-ligatures:normal;font-variant-caps:normal;font-variant-numeric:normal;font-feature-settings:normal;text-align:start;letter-spacing:0px;word-spacing:0px;writing-mode:lr-tb;text-anchor:start;fill:#333333;fill-opacity:1;stroke:none;stroke-width:0.73228645"
             d="m 27.598603,74.563816 q -0.497955,0 -0.790869,0.527244 -0.263624,0.497954 -0.263624,1.523152 0,1.025216 0.292916,1.581751 0.292914,0.556534 0.79087,0.556534 1.171659,0 1.171659,-2.050414 0,-2.138267 -1.200952,-2.138267 z"
             id="path5403"
             inkscape:connector-curvature="0" />
          <path
             inkscape:connector-curvature="0"
             style="font-style:normal;font-variant:normal;font-weight:900;font-stretch:normal;font-size:16.44063759px;line-height:1.25;font-family:'Mister Earl';-inkscape-font-specification:'Mister Earl, Heavy';font-variant-ligatures:normal;font-variant-caps:normal;font-variant-numeric:normal;font-feature-settings:normal;text-align:start;letter-spacing:0px;word-spacing:0px;writing-mode:lr-tb;text-anchor:start;fill:#333333;fill-opacity:1;stroke:none;stroke-width:0.41101551"
             d="m 33.001354,80.204285 q -1.397454,0 -2.186604,-1.03576 -0.77271,-1.05221 -0.77271,-2.95932 0,-0.93712 0.230169,-1.69338 0.230169,-0.75627 0.641185,-1.28237 0.411015,-0.5261 0.937116,-0.8056 0.542541,-0.29593 1.167285,-0.29593 1.331692,0 2.07152,1.06864 0.739829,1.06865 0.739829,3.02508 0,0.92068 -0.213728,1.66051 -0.197288,0.73982 -0.575422,1.26593 -0.378135,0.50965 -0.904236,0.78915 -0.509659,0.26305 -1.134404,0.26305 z"
             id="path5405" />
          <path
             style="font-style:normal;font-variant:normal;font-weight:900;font-stretch:normal;font-size:16.44063759px;line-height:1.25;font-family:'Mister Earl';-inkscape-font-specification:'Mister Earl, Heavy';font-variant-ligatures:normal;font-variant-caps:normal;font-variant-numeric:normal;font-feature-settings:normal;text-align:start;letter-spacing:0px;word-spacing:0px;writing-mode:lr-tb;text-anchor:start;fill:#333333;fill-opacity:1;stroke:none;stroke-width:0.74586958"
             d="m 34.023359,73.807128 q -0.507192,0 -0.805541,0.537024 -0.268512,0.50719 -0.268512,1.551405 0,1.044232 0.298347,1.61109 0.298348,0.566857 0.80554,0.566857 1.193393,0 1.193393,-2.088446 0,-2.17793 -1.223227,-2.17793 z"
             id="path5407"
             inkscape:connector-curvature="0" />
          <path
             inkscape:connector-curvature="0"
             id="path5409"
             style="font-style:normal;font-variant:normal;font-weight:900;font-stretch:normal;font-size:16.44063759px;line-height:1.25;font-family:'Mister Earl';-inkscape-font-specification:'Mister Earl, Heavy';font-variant-ligatures:normal;font-variant-caps:normal;font-variant-numeric:normal;font-feature-settings:normal;text-align:start;letter-spacing:0px;word-spacing:0px;writing-mode:lr-tb;text-anchor:start;fill:#333333;fill-opacity:1;stroke:none;stroke-width:0.41101551"
             d="m 37.682312,80.138515 q -0.328813,-1.69338 -0.723388,-3.6005 -0.394575,-1.92355 -0.904235,-4.07727 0.624744,-0.0329 1.216607,-0.0822 0.608304,-0.0658 1.167285,-0.13152 l 0.657626,4.75134 0.805591,-4.88287 q 0.756269,0.24661 1.479657,0.24661 0.197288,0 0.394576,-0.0164 0.213728,-0.0164 0.443897,-0.0493 -0.575422,2.00576 -1.117963,3.96219 -0.526101,1.95644 -1.002879,3.91287 z" />
          <path
             inkscape:connector-curvature="0"
             id="path5411"
             style="font-style:normal;font-variant:normal;font-weight:900;font-stretch:normal;font-size:16.44063759px;line-height:1.25;font-family:'Mister Earl';-inkscape-font-specification:'Mister Earl, Heavy';font-variant-ligatures:normal;font-variant-caps:normal;font-variant-numeric:normal;font-feature-settings:normal;text-align:start;letter-spacing:0px;word-spacing:0px;writing-mode:lr-tb;text-anchor:start;fill:#333333;fill-opacity:1;stroke:none;stroke-width:0.41101551"
             d="m 45.183096,80.187845 q -0.509659,-0.0493 -0.953557,-0.0822 -0.427456,-0.0329 -0.805591,-0.0329 -0.06576,0 -0.26305,0.0164 -0.197288,0 -0.542541,0.0164 v -0.27949 q 0,-0.69051 0.01644,-1.36457 0.01644,-0.67407 0.01644,-1.33169 0,-1.21661 -0.04932,-2.41678 -0.04932,-1.2166 -0.131525,-2.44965 l 2.597621,-0.23017 q 0.06576,1.69338 0.0822,3.30457 0.03288,1.59474 0.03288,3.14016 z m -2.679824,-8.99303 q -0.03288,-0.59187 -0.0822,-1.18373 -0.03288,-0.59186 -0.06576,-1.20017 l 2.696264,-0.0329 -0.01644,2.35101 z" />
          <path
             inkscape:connector-curvature="0"
             id="path5413"
             style="font-style:normal;font-variant:normal;font-weight:900;font-stretch:normal;font-size:16.44063759px;line-height:1.25;font-family:'Mister Earl';-inkscape-font-specification:'Mister Earl, Heavy';font-variant-ligatures:normal;font-variant-caps:normal;font-variant-numeric:normal;font-feature-settings:normal;text-align:start;letter-spacing:0px;word-spacing:0px;writing-mode:lr-tb;text-anchor:start;fill:#333333;fill-opacity:1;stroke:none;stroke-width:0.41101551"
             d="m 49.35876,75.025485 q -0.230169,-0.13153 -0.411016,-0.13153 -0.328813,0 -0.575422,0.29593 -0.230169,0.27949 -0.230169,0.78915 0,0.64119 0.295931,1.0522 0.312372,0.41102 0.690507,0.41102 0.164406,0 0.312372,-0.0658 -0.03288,-0.49322 -0.04932,-1.06865 -0.01644,-0.59186 -0.03288,-1.28236 z m 2.860671,-6.28033 q -0.180847,1.66051 -0.279491,3.55118 -0.0822,1.89067 -0.0822,4.06084 0,0.78915 0.03288,1.70982 0.04932,0.90424 0.197288,1.95644 -0.575423,0.11508 -1.150845,0.21373 -0.558982,0.11508 -1.134404,0.19728 l -0.131525,-1.23304 q -0.378135,0.49322 -0.739829,0.73983 -0.361694,0.24661 -0.838472,0.24661 -1.01932,0 -1.644064,-1.03576 -0.624744,-1.05221 -0.624744,-3.00864 0,-0.95356 0.180847,-1.69339 0.180847,-0.73983 0.493219,-1.24949 0.312372,-0.50966 0.739829,-0.77271 0.427456,-0.26305 0.920675,-0.26305 0.476779,0 0.75627,0.19729 0.279491,0.19729 0.460338,0.62475 -0.01644,-0.95356 -0.04932,-1.89068 -0.01644,-0.93711 -0.06576,-1.87423 0.756269,-0.0658 1.479657,-0.18085 0.739829,-0.11508 1.479658,-0.29593 z" />
          <path
             inkscape:connector-curvature="0"
             id="path5415"
             style="font-style:normal;font-variant:normal;font-weight:900;font-stretch:normal;font-size:16.44063759px;line-height:1.25;font-family:'Mister Earl';-inkscape-font-specification:'Mister Earl, Heavy';font-variant-ligatures:normal;font-variant-caps:normal;font-variant-numeric:normal;font-feature-settings:normal;text-align:start;letter-spacing:0px;word-spacing:0px;writing-mode:lr-tb;text-anchor:start;fill:#333333;fill-opacity:1;stroke:none;stroke-width:0.41101551"
             d="m 56.08401,79.530215 q -0.969998,0.75627 -1.824911,0.75627 -0.887794,0 -1.397454,-0.55898 -0.493219,-0.57542 -0.493219,-1.61119 0,-1.2166 0.78915,-1.98931 0.805592,-0.78915 2.351012,-1.03576 -0.131526,-0.31237 -0.411016,-0.47678 -0.263051,-0.18085 -0.608304,-0.18085 -0.115084,0 -0.230169,0.0164 -0.09864,0.0164 -0.230169,0.0658 -0.131525,0.0493 -0.279491,0.14796 -0.147965,0.0822 -0.312372,0.19729 0.147966,-0.55898 0.230169,-1.10152 0.0822,-0.55899 0.0822,-1.13441 v -0.14796 q 0.739829,-0.27949 1.381014,-0.27949 1.726267,0 2.663383,1.90711 0.937117,1.89067 0.969998,5.68846 -1.381014,0.11508 -2.646943,0.65763 z m -0.230169,-3.25525 q -0.756269,0 -0.756269,1.20017 0,0.34525 0.164406,0.57542 0.180847,0.21373 0.443897,0.21373 0.147966,0 0.328813,-0.0986 0,-0.46034 -0.04932,-0.92068 -0.04932,-0.47678 -0.131525,-0.97 z" />
          <g
             aria-label="T"
             style="font-style:normal;font-variant:normal;font-weight:normal;font-stretch:normal;font-size:15.8811388px;line-height:1.25;font-family:Grinched;-inkscape-font-specification:'Grinched, Normal';font-variant-ligatures:normal;font-variant-caps:normal;font-variant-numeric:normal;font-feature-settings:normal;text-align:start;letter-spacing:0px;word-spacing:0px;writing-mode:lr-tb;text-anchor:start;fill:#333333;fill-opacity:1;stroke:none;stroke-width:0.39702845"
             id="text5419">
            <path
               d="m 25.147907,67.645858 h 0.922781 q 0.02326,0.302424 -0.05428,0.767692 -0.02326,0.155089 -0.02326,0.356705 l -0.05428,0.333442 q 0,0.100808 -0.02326,0.255897 l -0.05428,0.566076 q -0.02326,0.27916 -0.07755,0.457513 v 0.07755 l -1.892089,0.27916 q -0.02326,0.03102 -0.09305,0.03102 -0.06204,0 -0.124071,0.01551 -0.06204,0.0078 -0.139581,0.03102 h -0.131826 q -0.124071,0.05428 -0.333442,0.05428 -0.155089,0.02326 -0.232633,0.05428 -0.124072,0.02326 -0.302424,0.02326 l -0.255898,0.07754 v 0.922781 l -0.03102,0.07755 -0.02326,4.071093 -0.02326,0.07754 v 1.892089 l -0.02326,0.209371 v 1.768017 q 0,0.100808 -0.03102,0.255897 v 0.845237 l -0.410986,0.04653 -0.124071,0.03102 -0.43425,0.06979 H 21.06906 l -0.124071,0.03102 -0.100808,0.02326 -0.209371,0.02326 q -0.124071,0.05428 -0.333442,0.05428 l -0.147334,0.02326 -0.07755,0.03102 h -0.333442 q -0.05428,-0.255898 -0.05428,-0.643621 l -0.02326,-0.100808 v -0.232634 q -0.03102,-0.100808 -0.03102,-0.255897 0,-0.155089 -0.02326,-0.232634 l -0.02326,-0.535058 q -0.02326,-0.131825 -0.02326,-0.333442 l -0.03102,-0.07754 V 78.78902 q -0.02326,-0.100808 -0.02326,-0.255897 l -0.02326,-0.209371 -0.03102,-0.480776 q -0.04653,-0.263652 -0.04653,-0.643621 l -0.03102,-0.20937 -0.02326,-0.201616 q 0.02326,-0.232634 -0.04653,-0.64362 l -0.03102,-0.581585 -0.02326,-0.186107 -0.05428,-0.845237 q -0.04653,-0.255897 -0.04653,-0.635865 l -0.03102,-0.100809 q -0.02326,-0.286915 -0.02326,-0.566075 l -0.02326,-0.155089 -0.02326,-0.43425 -0.03102,-0.209371 -0.04653,-0.845236 -0.131825,-0.06979 -0.410987,0.06979 h -0.07755 q -0.178352,0.05428 -0.410986,0.05428 l -0.124071,0.02326 -0.178353,0.03102 -0.100808,0.02326 -0.209371,0.02326 -0.558321,0.07755 -0.155089,0.03102 -0.131826,0.02326 -0.155089,0.02326 -0.178353,0.02326 -0.155089,0.03102 -0.178353,0.02326 -0.511794,0.07754 q -0.04653,-0.178352 -0.07754,-0.465267 l -0.02326,-0.06979 -0.05428,-0.36446 -0.02326,-0.178353 -0.02326,-0.124071 -0.03102,-0.108563 q -0.06979,-0.379968 -0.100808,-0.659129 -0.02326,-0.186107 -0.03877,-0.248143 -0.0078,-0.06203 -0.02326,-0.13958 -0.01551,-0.07755 -0.03877,-0.155089 l -0.05428,-0.43425 -0.04653,-0.124072 -0.02326,-0.310178 -0.05428,-0.209371 v -0.27916 q 0.201616,-0.04653 0.457513,-0.02326 l 0.186108,-0.02326 2.535709,-0.108562 0.04653,-0.02326 0.922781,-0.02326 0.07754,-0.03102 q 0.310179,0.03102 0.511795,-0.02326 l 1.535383,-0.05428 0.05428,-0.02326 1.481103,-0.04653 0.05428,-0.03102 0.977062,-0.02326 q 0.07755,-0.02326 0.201616,-0.02326 z"
               style="font-style:normal;font-variant:normal;font-weight:normal;font-stretch:normal;font-size:15.8811388px;font-family:Grinched;-inkscape-font-specification:'Grinched, Normal';font-variant-ligatures:normal;font-variant-caps:normal;font-variant-numeric:normal;font-feature-settings:normal;text-align:start;writing-mode:lr-tb;text-anchor:start;fill:#333333;stroke-width:0.39702845"
               id="path2489" />
          </g>
          <text
             xml:space="preserve"
             style="font-style:normal;font-variant:normal;font-weight:normal;font-stretch:normal;font-size:15.27078056px;line-height:1.25;font-family:Grinched;-inkscape-font-specification:'Grinched, Normal';font-variant-ligatures:normal;font-variant-caps:normal;font-variant-numeric:normal;font-feature-settings:normal;text-align:start;letter-spacing:0px;word-spacing:0px;writing-mode:lr-tb;text-anchor:start;fill:#333333;fill-opacity:1;stroke:none;stroke-width:0.38176951"
             x="58.92762"
             y="79.78331"
             id="text5423"><tspan
               sodipodi:role="line"
               id="tspan5421"
               x="58.92762"
               y="79.78331"
               style="font-style:normal;font-variant:normal;font-weight:normal;font-stretch:normal;font-size:15.27078056px;font-family:Grinched;-inkscape-font-specification:'Grinched, Normal';font-variant-ligatures:normal;font-variant-caps:normal;font-variant-numeric:normal;font-feature-settings:normal;text-align:start;writing-mode:lr-tb;text-anchor:start;fill:#333333;stroke-width:0.38176951">!</tspan></text>
          <path
             inkscape:connector-curvature="0"
             id="path5425"
             d="m 28.051879,76.144752 q -0.310012,0 -0.492371,0.328246 -0.164124,0.310011 -0.164124,0.948268 0,0.638268 0.18236,0.98475 0.18236,0.346481 0.492372,0.346481 0.729439,0 0.729439,-1.276525 0,-1.33122 -0.747676,-1.33122 z"
             style="font-style:normal;font-variant:normal;font-weight:900;font-stretch:normal;font-size:16.44063759px;line-height:1.25;font-family:'Mister Earl';-inkscape-font-specification:'Mister Earl, Heavy';font-variant-ligatures:normal;font-variant-caps:normal;font-variant-numeric:normal;font-feature-settings:normal;text-align:start;letter-spacing:0px;word-spacing:0px;writing-mode:lr-tb;text-anchor:start;fill:#333333;fill-opacity:1;stroke:none;stroke-width:0.45589915" />
          <path
             style="font-style:normal;font-variant:normal;font-weight:900;font-stretch:normal;font-size:16.44063759px;line-height:1.25;font-family:'Mister Earl';-inkscape-font-specification:'Mister Earl, Heavy';font-variant-ligatures:normal;font-variant-caps:normal;font-variant-numeric:normal;font-feature-settings:normal;text-align:start;letter-spacing:0px;word-spacing:0px;writing-mode:lr-tb;text-anchor:start;fill:#333333;fill-opacity:1;stroke:none;stroke-width:0.45589915"
             d="m 34.436433,75.198892 q -0.310012,0 -0.492371,0.328246 -0.164124,0.310011 -0.164124,0.948268 0,0.638268 0.18236,0.98475 0.18236,0.346481 0.492372,0.346481 0.729439,0 0.729439,-1.276525 0,-1.33122 -0.747676,-1.33122 z"
             id="path5427"
             inkscape:connector-curvature="0" />
        </g>
        <g
           id="g5473"
           transform="matrix(1.124194,0,0,1.124194,-6.4187986,-7.5760038)">
          <g
             transform="matrix(1.5106829,0,0,1.5106829,-11.822045,-42.85514)"
             id="g5443">
            <g
               id="g5435"
               style="fill:#ffffff;fill-opacity:1"
               transform="matrix(0.49199083,0,0,0.49199083,17.8622,61.096648)">
              <g
                 id="g5433"
                 style="fill:#ffffff;fill-opacity:1">
                <path
                   id="path5431"
                   style="fill:#ffffff;fill-opacity:1"
                   d="m 24.8,46.7 c -3.3,0 -6.6,-0.8 -9.5,-2.5 l 0.6,-1 c 5.2,3 11.7,3.2 17.1,0.4 l 0.6,1.1 c -2.8,1.3 -5.8,2 -8.8,2 z"
                   inkscape:connector-curvature="0" />
              </g>
            </g>
            <g
               id="g5441"
               style="fill:#ffffff;fill-opacity:1"
               transform="matrix(0.49199083,0,0,0.49199083,17.8622,61.096648)">
              <g
                 id="g5439"
                 style="fill:#ffffff;fill-opacity:1">
                <polygon
                   id="polygon5437"
                   style="fill:#ffffff;fill-opacity:1"
                   points="30.3,42.2 34.2,43.6 32.8,47.5 31.7,47.1 32.7,44.3 29.9,43.4 " />
              </g>
            </g>
          </g>
          <path
             id="path5445"
             d="m 26.643451,80.204285 q -1.397454,0 -2.186605,-1.03576 -0.77271,-1.05221 -0.77271,-2.95932 0,-0.93712 0.230169,-1.69338 0.230169,-0.75627 0.641185,-1.28237 0.411016,-0.5261 0.937116,-0.8056 0.542541,-0.29593 1.167286,-0.29593 1.331691,0 2.07152,1.06864 0.739829,1.06865 0.739829,3.02508 0,0.92068 -0.213729,1.66051 -0.197287,0.73982 -0.575422,1.26593 -0.378135,0.50965 -0.904235,0.78915 -0.50966,0.26305 -1.134404,0.26305 z"
             style="font-style:normal;font-variant:normal;font-weight:900;font-stretch:normal;font-size:16.44063759px;line-height:1.25;font-family:'Mister Earl';-inkscape-font-specification:'Mister Earl, Heavy';font-variant-ligatures:normal;font-variant-caps:normal;font-variant-numeric:normal;font-feature-settings:normal;text-align:start;letter-spacing:0px;word-spacing:0px;writing-mode:lr-tb;text-anchor:start;fill:#ffcc00;fill-opacity:1;stroke:none;stroke-width:0.41101551"
             inkscape:connector-curvature="0" />
          <path
             inkscape:connector-curvature="0"
             id="path5447"
             d="m 27.598603,74.563816 q -0.497955,0 -0.790869,0.527244 -0.263624,0.497954 -0.263624,1.523152 0,1.025216 0.292916,1.581751 0.292914,0.556534 0.79087,0.556534 1.171659,0 1.171659,-2.050414 0,-2.138267 -1.200952,-2.138267 z"
             style="font-style:normal;font-variant:normal;font-weight:900;font-stretch:normal;font-size:16.44063759px;line-height:1.25;font-family:'Mister Earl';-inkscape-font-specification:'Mister Earl, Heavy';font-variant-ligatures:normal;font-variant-caps:normal;font-variant-numeric:normal;font-feature-settings:normal;text-align:start;letter-spacing:0px;word-spacing:0px;writing-mode:lr-tb;text-anchor:start;fill:#000000;fill-opacity:1;stroke:none;stroke-width:0.73228645" />
          <path
             id="path5449"
             d="m 33.001354,80.204285 q -1.397454,0 -2.186604,-1.03576 -0.77271,-1.05221 -0.77271,-2.95932 0,-0.93712 0.230169,-1.69338 0.230169,-0.75627 0.641185,-1.28237 0.411015,-0.5261 0.937116,-0.8056 0.542541,-0.29593 1.167285,-0.29593 1.331692,0 2.07152,1.06864 0.739829,1.06865 0.739829,3.02508 0,0.92068 -0.213728,1.66051 -0.197288,0.73982 -0.575422,1.26593 -0.378135,0.50965 -0.904236,0.78915 -0.509659,0.26305 -1.134404,0.26305 z"
             style="font-style:normal;font-variant:normal;font-weight:900;font-stretch:normal;font-size:16.44063759px;line-height:1.25;font-family:'Mister Earl';-inkscape-font-specification:'Mister Earl, Heavy';font-variant-ligatures:normal;font-variant-caps:normal;font-variant-numeric:normal;font-feature-settings:normal;text-align:start;letter-spacing:0px;word-spacing:0px;writing-mode:lr-tb;text-anchor:start;fill:#ffcc00;fill-opacity:1;stroke:none;stroke-width:0.41101551"
             inkscape:connector-curvature="0" />
          <path
             inkscape:connector-curvature="0"
             id="path5451"
             d="m 34.023359,73.807128 q -0.507192,0 -0.805541,0.537024 -0.268512,0.50719 -0.268512,1.551405 0,1.044232 0.298347,1.61109 0.298348,0.566857 0.80554,0.566857 1.193393,0 1.193393,-2.088446 0,-2.17793 -1.223227,-2.17793 z"
             style="font-style:normal;font-variant:normal;font-weight:900;font-stretch:normal;font-size:16.44063759px;line-height:1.25;font-family:'Mister Earl';-inkscape-font-specification:'Mister Earl, Heavy';font-variant-ligatures:normal;font-variant-caps:normal;font-variant-numeric:normal;font-feature-settings:normal;text-align:start;letter-spacing:0px;word-spacing:0px;writing-mode:lr-tb;text-anchor:start;fill:#000000;fill-opacity:1;stroke:none;stroke-width:0.74586958" />
          <path
             d="m 37.682312,80.138515 q -0.328813,-1.69338 -0.723388,-3.6005 -0.394575,-1.92355 -0.904235,-4.07727 0.624744,-0.0329 1.216607,-0.0822 0.608304,-0.0658 1.167285,-0.13152 l 0.657626,4.75134 0.805591,-4.88287 q 0.756269,0.24661 1.479657,0.24661 0.197288,0 0.394576,-0.0164 0.213728,-0.0164 0.443897,-0.0493 -0.575422,2.00576 -1.117963,3.96219 -0.526101,1.95644 -1.002879,3.91287 z"
             style="font-style:normal;font-variant:normal;font-weight:900;font-stretch:normal;font-size:16.44063759px;line-height:1.25;font-family:'Mister Earl';-inkscape-font-specification:'Mister Earl, Heavy';font-variant-ligatures:normal;font-variant-caps:normal;font-variant-numeric:normal;font-feature-settings:normal;text-align:start;letter-spacing:0px;word-spacing:0px;writing-mode:lr-tb;text-anchor:start;fill:#ffffff;fill-opacity:1;stroke:none;stroke-width:0.41101551"
             id="path5453"
             inkscape:connector-curvature="0" />
          <path
             d="m 45.183096,80.187845 q -0.509659,-0.0493 -0.953557,-0.0822 -0.427456,-0.0329 -0.805591,-0.0329 -0.06576,0 -0.26305,0.0164 -0.197288,0 -0.542541,0.0164 v -0.27949 q 0,-0.69051 0.01644,-1.36457 0.01644,-0.67407 0.01644,-1.33169 0,-1.21661 -0.04932,-2.41678 -0.04932,-1.2166 -0.131525,-2.44965 l 2.597621,-0.23017 q 0.06576,1.69338 0.0822,3.30457 0.03288,1.59474 0.03288,3.14016 z m -2.679824,-8.99303 q -0.03288,-0.59187 -0.0822,-1.18373 -0.03288,-0.59186 -0.06576,-1.20017 l 2.696264,-0.0329 -0.01644,2.35101 z"
             style="font-style:normal;font-variant:normal;font-weight:900;font-stretch:normal;font-size:16.44063759px;line-height:1.25;font-family:'Mister Earl';-inkscape-font-specification:'Mister Earl, Heavy';font-variant-ligatures:normal;font-variant-caps:normal;font-variant-numeric:normal;font-feature-settings:normal;text-align:start;letter-spacing:0px;word-spacing:0px;writing-mode:lr-tb;text-anchor:start;fill:#ffffff;fill-opacity:1;stroke:none;stroke-width:0.41101551"
             id="path5455"
             inkscape:connector-curvature="0" />
          <path
             d="m 49.35876,75.025485 q -0.230169,-0.13153 -0.411016,-0.13153 -0.328813,0 -0.575422,0.29593 -0.230169,0.27949 -0.230169,0.78915 0,0.64119 0.295931,1.0522 0.312372,0.41102 0.690507,0.41102 0.164406,0 0.312372,-0.0658 -0.03288,-0.49322 -0.04932,-1.06865 -0.01644,-0.59186 -0.03288,-1.28236 z m 2.860671,-6.28033 q -0.180847,1.66051 -0.279491,3.55118 -0.0822,1.89067 -0.0822,4.06084 0,0.78915 0.03288,1.70982 0.04932,0.90424 0.197288,1.95644 -0.575423,0.11508 -1.150845,0.21373 -0.558982,0.11508 -1.134404,0.19728 l -0.131525,-1.23304 q -0.378135,0.49322 -0.739829,0.73983 -0.361694,0.24661 -0.838472,0.24661 -1.01932,0 -1.644064,-1.03576 -0.624744,-1.05221 -0.624744,-3.00864 0,-0.95356 0.180847,-1.69339 0.180847,-0.73983 0.493219,-1.24949 0.312372,-0.50966 0.739829,-0.77271 0.427456,-0.26305 0.920675,-0.26305 0.476779,0 0.75627,0.19729 0.279491,0.19729 0.460338,0.62475 -0.01644,-0.95356 -0.04932,-1.89068 -0.01644,-0.93711 -0.06576,-1.87423 0.756269,-0.0658 1.479657,-0.18085 0.739829,-0.11508 1.479658,-0.29593 z"
             style="font-style:normal;font-variant:normal;font-weight:900;font-stretch:normal;font-size:16.44063759px;line-height:1.25;font-family:'Mister Earl';-inkscape-font-specification:'Mister Earl, Heavy';font-variant-ligatures:normal;font-variant-caps:normal;font-variant-numeric:normal;font-feature-settings:normal;text-align:start;letter-spacing:0px;word-spacing:0px;writing-mode:lr-tb;text-anchor:start;fill:#ffffff;fill-opacity:1;stroke:none;stroke-width:0.41101551"
             id="path5457"
             inkscape:connector-curvature="0" />
          <path
             d="m 56.08401,79.530215 q -0.969998,0.75627 -1.824911,0.75627 -0.887794,0 -1.397454,-0.55898 -0.493219,-0.57542 -0.493219,-1.61119 0,-1.2166 0.78915,-1.98931 0.805592,-0.78915 2.351012,-1.03576 -0.131526,-0.31237 -0.411016,-0.47678 -0.263051,-0.18085 -0.608304,-0.18085 -0.115084,0 -0.230169,0.0164 -0.09864,0.0164 -0.230169,0.0658 -0.131525,0.0493 -0.279491,0.14796 -0.147965,0.0822 -0.312372,0.19729 0.147966,-0.55898 0.230169,-1.10152 0.0822,-0.55899 0.0822,-1.13441 v -0.14796 q 0.739829,-0.27949 1.381014,-0.27949 1.726267,0 2.663383,1.90711 0.937117,1.89067 0.969998,5.68846 -1.381014,0.11508 -2.646943,0.65763 z m -0.230169,-3.25525 q -0.756269,0 -0.756269,1.20017 0,0.34525 0.164406,0.57542 0.180847,0.21373 0.443897,0.21373 0.147966,0 0.328813,-0.0986 0,-0.46034 -0.04932,-0.92068 -0.04932,-0.47678 -0.131525,-0.97 z"
             style="font-style:normal;font-variant:normal;font-weight:900;font-stretch:normal;font-size:16.44063759px;line-height:1.25;font-family:'Mister Earl';-inkscape-font-specification:'Mister Earl, Heavy';font-variant-ligatures:normal;font-variant-caps:normal;font-variant-numeric:normal;font-feature-settings:normal;text-align:start;letter-spacing:0px;word-spacing:0px;writing-mode:lr-tb;text-anchor:start;fill:#ffffff;fill-opacity:1;stroke:none;stroke-width:0.41101551"
             id="path5459"
             inkscape:connector-curvature="0" />
          <g
             aria-label="T"
             style="font-style:normal;font-variant:normal;font-weight:normal;font-stretch:normal;font-size:15.8811388px;line-height:1.25;font-family:Grinched;-inkscape-font-specification:'Grinched, Normal';font-variant-ligatures:normal;font-variant-caps:normal;font-variant-numeric:normal;font-feature-settings:normal;text-align:start;letter-spacing:0px;word-spacing:0px;writing-mode:lr-tb;text-anchor:start;fill:#ffffff;fill-opacity:1;stroke:none;stroke-width:0.39702845"
             id="text5463">
            <path
               d="m 25.147907,67.645858 h 0.922781 q 0.02326,0.302424 -0.05428,0.767692 -0.02326,0.155089 -0.02326,0.356705 l -0.05428,0.333442 q 0,0.100808 -0.02326,0.255897 l -0.05428,0.566076 q -0.02326,0.27916 -0.07755,0.457513 v 0.07755 l -1.892089,0.27916 q -0.02326,0.03102 -0.09305,0.03102 -0.06204,0 -0.124071,0.01551 -0.06204,0.0078 -0.139581,0.03102 h -0.131826 q -0.124071,0.05428 -0.333442,0.05428 -0.155089,0.02326 -0.232633,0.05428 -0.124072,0.02326 -0.302424,0.02326 l -0.255898,0.07754 v 0.922781 l -0.03102,0.07755 -0.02326,4.071093 -0.02326,0.07754 v 1.892089 l -0.02326,0.209371 v 1.768017 q 0,0.100808 -0.03102,0.255897 v 0.845237 l -0.410986,0.04653 -0.124071,0.03102 -0.43425,0.06979 H 21.06906 l -0.124071,0.03102 -0.100808,0.02326 -0.209371,0.02326 q -0.124071,0.05428 -0.333442,0.05428 l -0.147334,0.02326 -0.07755,0.03102 h -0.333442 q -0.05428,-0.255898 -0.05428,-0.643621 l -0.02326,-0.100808 v -0.232634 q -0.03102,-0.100808 -0.03102,-0.255897 0,-0.155089 -0.02326,-0.232634 l -0.02326,-0.535058 q -0.02326,-0.131825 -0.02326,-0.333442 l -0.03102,-0.07754 V 78.78902 q -0.02326,-0.100808 -0.02326,-0.255897 l -0.02326,-0.209371 -0.03102,-0.480776 q -0.04653,-0.263652 -0.04653,-0.643621 l -0.03102,-0.20937 -0.02326,-0.201616 q 0.02326,-0.232634 -0.04653,-0.64362 l -0.03102,-0.581585 -0.02326,-0.186107 -0.05428,-0.845237 q -0.04653,-0.255897 -0.04653,-0.635865 l -0.03102,-0.100809 q -0.02326,-0.286915 -0.02326,-0.566075 l -0.02326,-0.155089 -0.02326,-0.43425 -0.03102,-0.209371 -0.04653,-0.845236 -0.131825,-0.06979 -0.410987,0.06979 h -0.07755 q -0.178352,0.05428 -0.410986,0.05428 l -0.124071,0.02326 -0.178353,0.03102 -0.100808,0.02326 -0.209371,0.02326 -0.558321,0.07755 -0.155089,0.03102 -0.131826,0.02326 -0.155089,0.02326 -0.178353,0.02326 -0.155089,0.03102 -0.178353,0.02326 -0.511794,0.07754 q -0.04653,-0.178352 -0.07754,-0.465267 l -0.02326,-0.06979 -0.05428,-0.36446 -0.02326,-0.178353 -0.02326,-0.124071 -0.03102,-0.108563 q -0.06979,-0.379968 -0.100808,-0.659129 -0.02326,-0.186107 -0.03877,-0.248143 -0.0078,-0.06203 -0.02326,-0.13958 -0.01551,-0.07755 -0.03877,-0.155089 l -0.05428,-0.43425 -0.04653,-0.124072 -0.02326,-0.310178 -0.05428,-0.209371 v -0.27916 q 0.201616,-0.04653 0.457513,-0.02326 l 0.186108,-0.02326 2.535709,-0.108562 0.04653,-0.02326 0.922781,-0.02326 0.07754,-0.03102 q 0.310179,0.03102 0.511795,-0.02326 l 1.535383,-0.05428 0.05428,-0.02326 1.481103,-0.04653 0.05428,-0.03102 0.977062,-0.02326 q 0.07755,-0.02326 0.201616,-0.02326 z"
               style="font-style:normal;font-variant:normal;font-weight:normal;font-stretch:normal;font-size:15.8811388px;font-family:Grinched;-inkscape-font-specification:'Grinched, Normal';font-variant-ligatures:normal;font-variant-caps:normal;font-variant-numeric:normal;font-feature-settings:normal;text-align:start;writing-mode:lr-tb;text-anchor:start;fill:#ffffff;stroke-width:0.39702845"
               id="path2486" />
          </g>
          <text
             id="text5467"
             y="79.78331"
             x="58.92762"
             style="font-style:normal;font-variant:normal;font-weight:normal;font-stretch:normal;font-size:15.27078056px;line-height:1.25;font-family:Grinched;-inkscape-font-specification:'Grinched, Normal';font-variant-ligatures:normal;font-variant-caps:normal;font-variant-numeric:normal;font-feature-settings:normal;text-align:start;letter-spacing:0px;word-spacing:0px;writing-mode:lr-tb;text-anchor:start;fill:#ffffff;fill-opacity:1;stroke:none;stroke-width:0.38176951"
             xml:space="preserve"><tspan
               style="font-style:normal;font-variant:normal;font-weight:normal;font-stretch:normal;font-size:15.27078056px;font-family:Grinched;-inkscape-font-specification:'Grinched, Normal';font-variant-ligatures:normal;font-variant-caps:normal;font-variant-numeric:normal;font-feature-settings:normal;text-align:start;writing-mode:lr-tb;text-anchor:start;fill:#ffffff;stroke-width:0.38176951"
               y="79.78331"
               x="58.92762"
               id="tspan5465"
               sodipodi:role="line">!</tspan></text>
          <path
             style="font-style:normal;font-variant:normal;font-weight:900;font-stretch:normal;font-size:16.44063759px;line-height:1.25;font-family:'Mister Earl';-inkscape-font-specification:'Mister Earl, Heavy';font-variant-ligatures:normal;font-variant-caps:normal;font-variant-numeric:normal;font-feature-settings:normal;text-align:start;letter-spacing:0px;word-spacing:0px;writing-mode:lr-tb;text-anchor:start;fill:#ffffff;fill-opacity:1;stroke:none;stroke-width:0.45589915"
             d="m 28.051879,76.144752 q -0.310012,0 -0.492371,0.328246 -0.164124,0.310011 -0.164124,0.948268 0,0.638268 0.18236,0.98475 0.18236,0.346481 0.492372,0.346481 0.729439,0 0.729439,-1.276525 0,-1.33122 -0.747676,-1.33122 z"
             id="path5469"
             inkscape:connector-curvature="0" />
          <path
             inkscape:connector-curvature="0"
             id="path5471"
             d="m 34.436433,75.198892 q -0.310012,0 -0.492371,0.328246 -0.164124,0.310011 -0.164124,0.948268 0,0.638268 0.18236,0.98475 0.18236,0.346481 0.492372,0.346481 0.729439,0 0.729439,-1.276525 0,-1.33122 -0.747676,-1.33122 z"
             style="font-style:normal;font-variant:normal;font-weight:900;font-stretch:normal;font-size:16.44063759px;line-height:1.25;font-family:'Mister Earl';-inkscape-font-specification:'Mister Earl, Heavy';font-variant-ligatures:normal;font-variant-caps:normal;font-variant-numeric:normal;font-feature-settings:normal;text-align:start;letter-spacing:0px;word-spacing:0px;writing-mode:lr-tb;text-anchor:start;fill:#ffffff;fill-opacity:1;stroke:none;stroke-width:0.45589915" />
        </g>
      </g>
    </g>
  </g>
</svg>
